<svg width="34" height="34" viewBox="0 0 34 34" fill="none" xmlns="http://www.w3.org/2000/svg">
<g id="vuesax/linear/direct-inbox">
<g id="direct-inbox">
<path id="Vector" d="M17 2.83301V12.7497L19.8333 9.91634" stroke="white" stroke-width="2.5" stroke-linecap="round" stroke-linejoin="round"/>
<path id="Vector_2" d="M16.9993 12.7503L14.166 9.91699" stroke="white" stroke-width="2.5" stroke-linecap="round" stroke-linejoin="round"/>
<path id="Vector_3" d="M2.80469 18.417H9.05219C9.59052 18.417 10.0722 18.7145 10.313 19.1962L11.9705 22.5112C12.4522 23.4745 13.4297 24.0837 14.5064 24.0837H19.5072C20.5839 24.0837 21.5614 23.4745 22.043 22.5112L23.7005 19.1962C23.9414 18.7145 24.4372 18.417 24.9614 18.417H31.138" stroke="white" stroke-width="2.5" stroke-linecap="round" stroke-linejoin="round"/>
<path id="Vector_4" d="M9.91732 5.85059C4.90232 6.58725 2.83398 9.53392 2.83398 15.5831V21.2498C2.83398 28.3331 5.66732 31.1664 12.7507 31.1664H21.2507C28.334 31.1664 31.1673 28.3331 31.1673 21.2498V15.5831C31.1673 9.53392 29.099 6.58725 24.084 5.85059" stroke="white" stroke-width="2.5" stroke-linecap="round" stroke-linejoin="round"/>
</g>
</g>
</svg>
