<svg width="97" height="97" viewBox="0 0 97 97" fill="none" xmlns="http://www.w3.org/2000/svg">
<g id="instagram 1" clip-path="url(#clip0_521_1093)">
<g id="g147">
<g id="g149">
<g id="Clip path group">
<mask id="mask0_521_1093" style="mask-type:luminance" maskUnits="userSpaceOnUse" x="0" y="0" width="97" height="97">
<g id="clipPath155">
<path id="path153" d="M0.875 0.875008H96.125V96.125H0.875V0.875008Z" fill="white"/>
</g>
</mask>
<g mask="url(#mask0_521_1093)">
<g id="g151">
<g id="g157">
<path id="path159" d="M65.2441 48.499C65.2441 57.7461 57.748 65.2422 48.501 65.2422C39.2539 65.2422 31.7578 57.7461 31.7578 48.499C31.7578 39.252 39.2539 31.7559 48.501 31.7559C57.748 31.7559 65.2441 39.252 65.2441 48.499Z" stroke="#2E2BD0" stroke-width="2" stroke-miterlimit="10" stroke-linecap="round" stroke-linejoin="round"/>
</g>
<g id="g161">
<path id="path163" d="M26.1763 82.1719C20.0116 82.1719 14.8281 76.9884 14.8281 70.8237V26.1753C14.8281 20.0107 20.0116 14.8272 26.1763 14.8272H70.8247C76.9893 14.8272 82.1728 20.0107 82.1728 26.1753V70.8237C82.1728 76.9884 76.9893 82.1719 70.8247 82.1719H26.1763Z" stroke="#2E2BD0" stroke-width="2" stroke-miterlimit="10" stroke-linecap="round" stroke-linejoin="round"/>
</g>
<g id="g169">
<path id="path171" d="M70.8252 28.9653C70.8252 30.5064 69.5758 31.7559 68.0347 31.7559C66.4936 31.7559 65.2441 30.5064 65.2441 28.9653C65.2441 27.4242 66.4936 26.1748 68.0347 26.1748C69.5758 26.1748 70.8252 27.4242 70.8252 28.9653Z" stroke="#2E2BD0" stroke-width="2" stroke-miterlimit="10" stroke-linecap="round" stroke-linejoin="round"/>
</g>
</g>
</g>
</g>
</g>
</g>
</g>
<defs>
<clipPath id="clip0_521_1093">
<rect width="95.25" height="95.25" fill="white" transform="translate(0.875 0.875)"/>
</clipPath>
</defs>
</svg>
