<svg width="96" height="97" viewBox="0 0 96 97" fill="none" xmlns="http://www.w3.org/2000/svg">
<g id="linkedin 1">
<g id="g297">
<path id="path299" d="M34.5059 72.3125H26.5684V40.5625H34.5059V72.3125Z" stroke="#2E2BD0" stroke-width="2" stroke-miterlimit="10" stroke-linecap="round" stroke-linejoin="round"/>
<g id="g301">
<path id="path311" d="M34.5059 28.6563C34.5059 30.8482 32.7289 32.625 30.5371 32.625C28.3453 32.625 26.5684 30.8482 26.5684 28.6563C26.5684 26.4643 28.3453 24.6875 30.5371 24.6875C32.7289 24.6875 34.5059 26.4643 34.5059 28.6563Z" stroke="#2E2BD0" stroke-width="2" stroke-miterlimit="10" stroke-linecap="round" stroke-linejoin="round"/>
<path id="path315" d="M50.3809 54.4531C50.3809 51.1653 53.0461 48.5 56.334 48.5C59.6218 48.5 62.2871 51.1653 62.2871 54.4531V72.3125H70.2246V50.9528C70.2246 49.3398 69.849 47.7489 69.1276 46.3061C65.6112 39.2733 55.9552 38.9569 51.3064 43.6057L50.3809 44.5313V40.5625H42.4434V72.3125H50.3809V54.4531Z" stroke="#2E2BD0" stroke-width="2" stroke-miterlimit="10" stroke-linecap="round" stroke-linejoin="round"/>
</g>
</g>
</g>
</svg>
