<svg width="96" height="97" viewBox="0 0 96 97" fill="none" xmlns="http://www.w3.org/2000/svg">
<g id="vuesax/linear/whatsapp">
<g id="whatsapp">
<path id="Vector" d="M27.4273 82.6312C33.3805 86.2031 40.5242 88.1875 47.668 88.1875C69.4961 88.1875 87.3555 70.3281 87.3555 48.5C87.3555 26.6719 69.4961 8.8125 47.668 8.8125C25.8398 8.8125 7.98047 26.6719 7.98047 48.5C7.98047 55.6437 9.96484 62.3906 13.1398 68.3437L8.3108 86.917C8.16476 87.4787 8.68466 87.9863 9.24271 87.8269L27.4273 82.6312Z" stroke="#2E2BD0" stroke-width="2" stroke-miterlimit="10" stroke-linecap="round" stroke-linejoin="round"/>
<path id="Vector_2" d="M65.5273 59.805C65.5273 60.4479 65.3843 61.1087 65.0802 61.7517C64.7761 62.3946 64.3826 63.0018 63.8639 63.5733C62.9875 64.5377 62.0216 65.2342 60.9306 65.6807C59.8574 66.1272 58.6948 66.3594 57.4428 66.3594C55.6184 66.3594 53.6688 65.9308 51.6119 65.0556C49.555 64.1805 47.4981 63.0018 45.459 61.5195C43.4021 60.0193 41.4525 58.3584 39.5923 56.5189C37.7501 54.6615 36.0867 52.7148 34.6021 50.6788C33.1354 48.6429 31.9549 46.6069 31.0964 44.5888C30.2379 42.5528 29.8086 40.6062 29.8086 38.7488C29.8086 37.5343 30.0232 36.3735 30.4525 35.3019C30.8818 34.2125 31.5614 33.2124 32.5094 32.3194C33.6541 31.1943 34.9062 30.6406 36.2297 30.6406C36.7306 30.6406 37.2314 30.7478 37.6785 30.9621C38.1436 31.1764 38.5549 31.4979 38.8769 31.9622L43.0265 37.8022C43.3485 38.2487 43.581 38.6595 43.7419 39.0524C43.9029 39.4274 43.9924 39.8025 43.9924 40.1418C43.9924 40.5704 43.8672 40.9991 43.6167 41.4098C43.3842 41.8206 43.0444 42.2492 42.6151 42.6778L41.2558 44.0887C41.059 44.2852 40.9696 44.5174 40.9696 44.8031C40.9696 44.946 40.9875 45.071 41.0232 45.2139C41.0769 45.3568 41.1306 45.4639 41.1663 45.5711C41.4883 46.1604 42.0428 46.9284 42.8298 47.8571C43.6346 48.7858 44.4932 49.7323 45.4232 50.6788C46.3891 51.6254 47.3192 52.5005 48.2672 53.3042C49.1972 54.09 49.9663 54.6258 50.5745 54.9472C50.6639 54.983 50.7712 55.0365 50.8964 55.0901C51.0395 55.1437 51.1826 55.1615 51.3436 55.1615C51.6476 55.1615 51.8802 55.0544 52.0769 54.8579L53.4363 53.5185C53.8834 53.072 54.3127 52.7327 54.7241 52.5184C55.1355 52.2683 55.5468 52.1433 55.994 52.1433C56.3338 52.1433 56.6916 52.2148 57.0851 52.3755C57.4786 52.5362 57.8899 52.7684 58.3371 53.072L64.2574 57.269C64.7225 57.5904 65.0444 57.9655 65.2412 58.412C65.42 58.8584 65.5273 59.3049 65.5273 59.805Z" stroke="#2E2BD0" stroke-width="2" stroke-miterlimit="10"/>
</g>
</g>
</svg>
